<mxfile host="Electron" modified="2023-06-18T10:04:20.036Z" agent="Mozilla/5.0 (X11; Linux x86_64) AppleWebKit/537.36 (KHTML, like Gecko) draw.io/21.4.1 Chrome/112.0.5615.204 Electron/24.5.1 Safari/537.36" etag="YE_zBlak-dpuSesplpNY" version="21.4.1" type="device" pages="3">
  <diagram name="idle-tabs" id="xIGoKiz0dgbJob8TGpyy">
    <mxGraphModel dx="1434" dy="797" grid="1" gridSize="10" guides="1" tooltips="1" connect="1" arrows="1" fold="1" page="1" pageScale="1" pageWidth="850" pageHeight="1100" math="0" shadow="0">
      <root>
        <mxCell id="0" />
        <mxCell id="1" parent="0" />
        <mxCell id="QsZtwmxSAV4yMhZimYmr-6" value="Пользователи" style="rounded=0;whiteSpace=wrap;html=1;align=left;fontSize=22;" vertex="1" parent="1">
          <mxGeometry x="60" y="120" width="360" height="40" as="geometry" />
        </mxCell>
        <mxCell id="QsZtwmxSAV4yMhZimYmr-8" value="Все группы" style="rounded=0;whiteSpace=wrap;html=1;align=left;fontSize=22;" vertex="1" parent="1">
          <mxGeometry x="60" y="160" width="360" height="40" as="geometry" />
        </mxCell>
        <mxCell id="QsZtwmxSAV4yMhZimYmr-16" value="" style="group" vertex="1" connectable="0" parent="1">
          <mxGeometry x="40" y="80" width="400" height="30" as="geometry" />
        </mxCell>
        <mxCell id="QsZtwmxSAV4yMhZimYmr-2" value="" style="endArrow=none;dashed=1;html=1;rounded=0;" edge="1" parent="QsZtwmxSAV4yMhZimYmr-16">
          <mxGeometry width="50" height="50" relative="1" as="geometry">
            <mxPoint y="15" as="sourcePoint" />
            <mxPoint x="120" y="14.75" as="targetPoint" />
          </mxGeometry>
        </mxCell>
        <mxCell id="QsZtwmxSAV4yMhZimYmr-5" value="Администратор" style="text;html=1;strokeColor=none;fillColor=none;align=center;verticalAlign=middle;whiteSpace=wrap;rounded=0;" vertex="1" parent="QsZtwmxSAV4yMhZimYmr-16">
          <mxGeometry x="120" width="160" height="30" as="geometry" />
        </mxCell>
        <mxCell id="QsZtwmxSAV4yMhZimYmr-15" value="" style="endArrow=none;dashed=1;html=1;rounded=0;" edge="1" parent="QsZtwmxSAV4yMhZimYmr-16">
          <mxGeometry width="50" height="50" relative="1" as="geometry">
            <mxPoint x="280" y="14.75" as="sourcePoint" />
            <mxPoint x="400" y="15" as="targetPoint" />
          </mxGeometry>
        </mxCell>
        <mxCell id="QsZtwmxSAV4yMhZimYmr-17" value="" style="group" vertex="1" connectable="0" parent="1">
          <mxGeometry x="40" y="200" width="400" height="30" as="geometry" />
        </mxCell>
        <mxCell id="QsZtwmxSAV4yMhZimYmr-18" value="" style="endArrow=none;dashed=1;html=1;rounded=0;" edge="1" parent="QsZtwmxSAV4yMhZimYmr-17">
          <mxGeometry width="50" height="50" relative="1" as="geometry">
            <mxPoint y="15" as="sourcePoint" />
            <mxPoint x="120" y="14.75" as="targetPoint" />
          </mxGeometry>
        </mxCell>
        <mxCell id="QsZtwmxSAV4yMhZimYmr-19" value="Преподаватель" style="text;html=1;strokeColor=none;fillColor=none;align=center;verticalAlign=middle;whiteSpace=wrap;rounded=0;" vertex="1" parent="QsZtwmxSAV4yMhZimYmr-17">
          <mxGeometry x="120" width="160" height="30" as="geometry" />
        </mxCell>
        <mxCell id="QsZtwmxSAV4yMhZimYmr-20" value="" style="endArrow=none;dashed=1;html=1;rounded=0;" edge="1" parent="QsZtwmxSAV4yMhZimYmr-17">
          <mxGeometry width="50" height="50" relative="1" as="geometry">
            <mxPoint x="280" y="14.75" as="sourcePoint" />
            <mxPoint x="400" y="15" as="targetPoint" />
          </mxGeometry>
        </mxCell>
        <mxCell id="QsZtwmxSAV4yMhZimYmr-22" value="Все курсы" style="rounded=0;whiteSpace=wrap;html=1;align=left;fontSize=22;" vertex="1" parent="1">
          <mxGeometry x="60" y="240" width="360" height="40" as="geometry" />
        </mxCell>
        <mxCell id="QsZtwmxSAV4yMhZimYmr-23" value="Мои курсы" style="rounded=0;whiteSpace=wrap;html=1;align=left;fontSize=22;" vertex="1" parent="1">
          <mxGeometry x="60" y="280" width="360" height="40" as="geometry" />
        </mxCell>
        <mxCell id="QsZtwmxSAV4yMhZimYmr-24" value="Мои группы" style="rounded=0;whiteSpace=wrap;html=1;align=left;fontSize=22;" vertex="1" parent="1">
          <mxGeometry x="60" y="320" width="360" height="40" as="geometry" />
        </mxCell>
        <mxCell id="QsZtwmxSAV4yMhZimYmr-25" value="" style="group" vertex="1" connectable="0" parent="1">
          <mxGeometry x="40" y="360" width="400" height="30" as="geometry" />
        </mxCell>
        <mxCell id="QsZtwmxSAV4yMhZimYmr-26" value="" style="endArrow=none;dashed=1;html=1;rounded=0;" edge="1" parent="QsZtwmxSAV4yMhZimYmr-25">
          <mxGeometry width="50" height="50" relative="1" as="geometry">
            <mxPoint y="15" as="sourcePoint" />
            <mxPoint x="120" y="14.75" as="targetPoint" />
          </mxGeometry>
        </mxCell>
        <mxCell id="QsZtwmxSAV4yMhZimYmr-27" value="Учащийся" style="text;html=1;strokeColor=none;fillColor=none;align=center;verticalAlign=middle;whiteSpace=wrap;rounded=0;" vertex="1" parent="QsZtwmxSAV4yMhZimYmr-25">
          <mxGeometry x="120" width="160" height="30" as="geometry" />
        </mxCell>
        <mxCell id="QsZtwmxSAV4yMhZimYmr-28" value="" style="endArrow=none;dashed=1;html=1;rounded=0;" edge="1" parent="QsZtwmxSAV4yMhZimYmr-25">
          <mxGeometry width="50" height="50" relative="1" as="geometry">
            <mxPoint x="280" y="14.75" as="sourcePoint" />
            <mxPoint x="400" y="15" as="targetPoint" />
          </mxGeometry>
        </mxCell>
        <mxCell id="QsZtwmxSAV4yMhZimYmr-29" value="Мои курсы" style="rounded=0;whiteSpace=wrap;html=1;align=left;fontSize=22;" vertex="1" parent="1">
          <mxGeometry x="60" y="400" width="360" height="40" as="geometry" />
        </mxCell>
        <mxCell id="QsZtwmxSAV4yMhZimYmr-30" value="" style="group" vertex="1" connectable="0" parent="1">
          <mxGeometry x="40" y="440" width="400" height="30" as="geometry" />
        </mxCell>
        <mxCell id="QsZtwmxSAV4yMhZimYmr-31" value="" style="endArrow=none;dashed=1;html=1;rounded=0;" edge="1" parent="QsZtwmxSAV4yMhZimYmr-30">
          <mxGeometry width="50" height="50" relative="1" as="geometry">
            <mxPoint y="15" as="sourcePoint" />
            <mxPoint x="120" y="14.75" as="targetPoint" />
          </mxGeometry>
        </mxCell>
        <mxCell id="QsZtwmxSAV4yMhZimYmr-32" value="Методист" style="text;html=1;strokeColor=none;fillColor=none;align=center;verticalAlign=middle;whiteSpace=wrap;rounded=0;" vertex="1" parent="QsZtwmxSAV4yMhZimYmr-30">
          <mxGeometry x="120" width="160" height="30" as="geometry" />
        </mxCell>
        <mxCell id="QsZtwmxSAV4yMhZimYmr-33" value="" style="endArrow=none;dashed=1;html=1;rounded=0;" edge="1" parent="QsZtwmxSAV4yMhZimYmr-30">
          <mxGeometry width="50" height="50" relative="1" as="geometry">
            <mxPoint x="280" y="14.75" as="sourcePoint" />
            <mxPoint x="400" y="15" as="targetPoint" />
          </mxGeometry>
        </mxCell>
        <mxCell id="QsZtwmxSAV4yMhZimYmr-34" value="Мои группы" style="rounded=0;whiteSpace=wrap;html=1;align=left;fontSize=22;" vertex="1" parent="1">
          <mxGeometry x="60" y="480" width="360" height="40" as="geometry" />
        </mxCell>
        <mxCell id="QsZtwmxSAV4yMhZimYmr-35" value="" style="endArrow=none;html=1;rounded=0;" edge="1" parent="1">
          <mxGeometry width="50" height="50" relative="1" as="geometry">
            <mxPoint x="450" y="590" as="sourcePoint" />
            <mxPoint x="450" y="70" as="targetPoint" />
          </mxGeometry>
        </mxCell>
        <mxCell id="QsZtwmxSAV4yMhZimYmr-36" value="" style="endArrow=none;html=1;rounded=0;" edge="1" parent="1">
          <mxGeometry width="50" height="50" relative="1" as="geometry">
            <mxPoint x="850" y="60" as="sourcePoint" />
            <mxPoint x="40" y="60" as="targetPoint" />
          </mxGeometry>
        </mxCell>
        <mxCell id="QsZtwmxSAV4yMhZimYmr-37" value="Выйти" style="rounded=0;whiteSpace=wrap;html=1;align=center;fontSize=22;" vertex="1" parent="1">
          <mxGeometry x="40" y="10" width="100" height="40" as="geometry" />
        </mxCell>
        <mxCell id="QsZtwmxSAV4yMhZimYmr-38" value="Имя Фамилия" style="text;html=1;strokeColor=none;fillColor=none;align=left;verticalAlign=middle;whiteSpace=wrap;rounded=0;fontSize=16;" vertex="1" parent="1">
          <mxGeometry x="150" y="20" width="130" height="30" as="geometry" />
        </mxCell>
      </root>
    </mxGraphModel>
  </diagram>
  <diagram name="admin-users" id="6zyeEXm8T54RDMVHprEU">
    <mxGraphModel dx="1434" dy="797" grid="1" gridSize="10" guides="1" tooltips="1" connect="1" arrows="1" fold="1" page="1" pageScale="1" pageWidth="850" pageHeight="1100" math="0" shadow="0">
      <root>
        <mxCell id="TBT81XrI4FcMYPNjkkqH-0" />
        <mxCell id="TBT81XrI4FcMYPNjkkqH-1" parent="TBT81XrI4FcMYPNjkkqH-0" />
        <mxCell id="TBT81XrI4FcMYPNjkkqH-2" value="Пользователи" style="rounded=0;whiteSpace=wrap;html=1;align=left;fontSize=22;fillColor=#f5f5f5;fontColor=#333333;strokeColor=#666666;" vertex="1" parent="TBT81XrI4FcMYPNjkkqH-1">
          <mxGeometry x="60" y="120" width="360" height="40" as="geometry" />
        </mxCell>
        <mxCell id="TBT81XrI4FcMYPNjkkqH-3" value="Все группы" style="rounded=0;whiteSpace=wrap;html=1;align=left;fontSize=22;" vertex="1" parent="TBT81XrI4FcMYPNjkkqH-1">
          <mxGeometry x="60" y="160" width="360" height="40" as="geometry" />
        </mxCell>
        <mxCell id="TBT81XrI4FcMYPNjkkqH-4" value="" style="group" vertex="1" connectable="0" parent="TBT81XrI4FcMYPNjkkqH-1">
          <mxGeometry x="40" y="80" width="400" height="30" as="geometry" />
        </mxCell>
        <mxCell id="TBT81XrI4FcMYPNjkkqH-5" value="" style="endArrow=none;dashed=1;html=1;rounded=0;" edge="1" parent="TBT81XrI4FcMYPNjkkqH-4">
          <mxGeometry width="50" height="50" relative="1" as="geometry">
            <mxPoint y="15" as="sourcePoint" />
            <mxPoint x="120" y="14.75" as="targetPoint" />
          </mxGeometry>
        </mxCell>
        <mxCell id="TBT81XrI4FcMYPNjkkqH-6" value="Администратор" style="text;html=1;strokeColor=none;fillColor=none;align=center;verticalAlign=middle;whiteSpace=wrap;rounded=0;" vertex="1" parent="TBT81XrI4FcMYPNjkkqH-4">
          <mxGeometry x="120" width="160" height="30" as="geometry" />
        </mxCell>
        <mxCell id="TBT81XrI4FcMYPNjkkqH-7" value="" style="endArrow=none;dashed=1;html=1;rounded=0;" edge="1" parent="TBT81XrI4FcMYPNjkkqH-4">
          <mxGeometry width="50" height="50" relative="1" as="geometry">
            <mxPoint x="280" y="14.75" as="sourcePoint" />
            <mxPoint x="400" y="15" as="targetPoint" />
          </mxGeometry>
        </mxCell>
        <mxCell id="TBT81XrI4FcMYPNjkkqH-8" value="" style="group" vertex="1" connectable="0" parent="TBT81XrI4FcMYPNjkkqH-1">
          <mxGeometry x="40" y="200" width="400" height="30" as="geometry" />
        </mxCell>
        <mxCell id="TBT81XrI4FcMYPNjkkqH-9" value="" style="endArrow=none;dashed=1;html=1;rounded=0;" edge="1" parent="TBT81XrI4FcMYPNjkkqH-8">
          <mxGeometry width="50" height="50" relative="1" as="geometry">
            <mxPoint y="15" as="sourcePoint" />
            <mxPoint x="120" y="14.75" as="targetPoint" />
          </mxGeometry>
        </mxCell>
        <mxCell id="TBT81XrI4FcMYPNjkkqH-10" value="Преподаватель" style="text;html=1;strokeColor=none;fillColor=none;align=center;verticalAlign=middle;whiteSpace=wrap;rounded=0;" vertex="1" parent="TBT81XrI4FcMYPNjkkqH-8">
          <mxGeometry x="120" width="160" height="30" as="geometry" />
        </mxCell>
        <mxCell id="TBT81XrI4FcMYPNjkkqH-11" value="" style="endArrow=none;dashed=1;html=1;rounded=0;" edge="1" parent="TBT81XrI4FcMYPNjkkqH-8">
          <mxGeometry width="50" height="50" relative="1" as="geometry">
            <mxPoint x="280" y="14.75" as="sourcePoint" />
            <mxPoint x="400" y="15" as="targetPoint" />
          </mxGeometry>
        </mxCell>
        <mxCell id="TBT81XrI4FcMYPNjkkqH-12" value="Все курсы" style="rounded=0;whiteSpace=wrap;html=1;align=left;fontSize=22;" vertex="1" parent="TBT81XrI4FcMYPNjkkqH-1">
          <mxGeometry x="60" y="240" width="360" height="40" as="geometry" />
        </mxCell>
        <mxCell id="TBT81XrI4FcMYPNjkkqH-13" value="Мои курсы" style="rounded=0;whiteSpace=wrap;html=1;align=left;fontSize=22;" vertex="1" parent="TBT81XrI4FcMYPNjkkqH-1">
          <mxGeometry x="60" y="280" width="360" height="40" as="geometry" />
        </mxCell>
        <mxCell id="TBT81XrI4FcMYPNjkkqH-14" value="Мои группы" style="rounded=0;whiteSpace=wrap;html=1;align=left;fontSize=22;" vertex="1" parent="TBT81XrI4FcMYPNjkkqH-1">
          <mxGeometry x="60" y="320" width="360" height="40" as="geometry" />
        </mxCell>
        <mxCell id="TBT81XrI4FcMYPNjkkqH-15" value="" style="group" vertex="1" connectable="0" parent="TBT81XrI4FcMYPNjkkqH-1">
          <mxGeometry x="40" y="360" width="400" height="30" as="geometry" />
        </mxCell>
        <mxCell id="TBT81XrI4FcMYPNjkkqH-16" value="" style="endArrow=none;dashed=1;html=1;rounded=0;" edge="1" parent="TBT81XrI4FcMYPNjkkqH-15">
          <mxGeometry width="50" height="50" relative="1" as="geometry">
            <mxPoint y="15" as="sourcePoint" />
            <mxPoint x="120" y="14.75" as="targetPoint" />
          </mxGeometry>
        </mxCell>
        <mxCell id="TBT81XrI4FcMYPNjkkqH-17" value="Учащийся" style="text;html=1;strokeColor=none;fillColor=none;align=center;verticalAlign=middle;whiteSpace=wrap;rounded=0;" vertex="1" parent="TBT81XrI4FcMYPNjkkqH-15">
          <mxGeometry x="120" width="160" height="30" as="geometry" />
        </mxCell>
        <mxCell id="TBT81XrI4FcMYPNjkkqH-18" value="" style="endArrow=none;dashed=1;html=1;rounded=0;" edge="1" parent="TBT81XrI4FcMYPNjkkqH-15">
          <mxGeometry width="50" height="50" relative="1" as="geometry">
            <mxPoint x="280" y="14.75" as="sourcePoint" />
            <mxPoint x="400" y="15" as="targetPoint" />
          </mxGeometry>
        </mxCell>
        <mxCell id="TBT81XrI4FcMYPNjkkqH-19" value="Мои курсы" style="rounded=0;whiteSpace=wrap;html=1;align=left;fontSize=22;" vertex="1" parent="TBT81XrI4FcMYPNjkkqH-1">
          <mxGeometry x="60" y="400" width="360" height="40" as="geometry" />
        </mxCell>
        <mxCell id="TBT81XrI4FcMYPNjkkqH-20" value="" style="group" vertex="1" connectable="0" parent="TBT81XrI4FcMYPNjkkqH-1">
          <mxGeometry x="40" y="440" width="400" height="30" as="geometry" />
        </mxCell>
        <mxCell id="TBT81XrI4FcMYPNjkkqH-21" value="" style="endArrow=none;dashed=1;html=1;rounded=0;" edge="1" parent="TBT81XrI4FcMYPNjkkqH-20">
          <mxGeometry width="50" height="50" relative="1" as="geometry">
            <mxPoint y="15" as="sourcePoint" />
            <mxPoint x="120" y="14.75" as="targetPoint" />
          </mxGeometry>
        </mxCell>
        <mxCell id="TBT81XrI4FcMYPNjkkqH-22" value="Методист" style="text;html=1;strokeColor=none;fillColor=none;align=center;verticalAlign=middle;whiteSpace=wrap;rounded=0;" vertex="1" parent="TBT81XrI4FcMYPNjkkqH-20">
          <mxGeometry x="120" width="160" height="30" as="geometry" />
        </mxCell>
        <mxCell id="TBT81XrI4FcMYPNjkkqH-23" value="" style="endArrow=none;dashed=1;html=1;rounded=0;" edge="1" parent="TBT81XrI4FcMYPNjkkqH-20">
          <mxGeometry width="50" height="50" relative="1" as="geometry">
            <mxPoint x="280" y="14.75" as="sourcePoint" />
            <mxPoint x="400" y="15" as="targetPoint" />
          </mxGeometry>
        </mxCell>
        <mxCell id="TBT81XrI4FcMYPNjkkqH-24" value="Мои группы" style="rounded=0;whiteSpace=wrap;html=1;align=left;fontSize=22;" vertex="1" parent="TBT81XrI4FcMYPNjkkqH-1">
          <mxGeometry x="60" y="480" width="360" height="40" as="geometry" />
        </mxCell>
        <mxCell id="TBT81XrI4FcMYPNjkkqH-25" value="" style="endArrow=none;html=1;rounded=0;" edge="1" parent="TBT81XrI4FcMYPNjkkqH-1">
          <mxGeometry width="50" height="50" relative="1" as="geometry">
            <mxPoint x="450" y="590" as="sourcePoint" />
            <mxPoint x="450" y="70" as="targetPoint" />
          </mxGeometry>
        </mxCell>
        <mxCell id="TBT81XrI4FcMYPNjkkqH-26" value="" style="endArrow=none;html=1;rounded=0;" edge="1" parent="TBT81XrI4FcMYPNjkkqH-1">
          <mxGeometry width="50" height="50" relative="1" as="geometry">
            <mxPoint x="1170" y="60" as="sourcePoint" />
            <mxPoint x="40" y="60" as="targetPoint" />
          </mxGeometry>
        </mxCell>
        <mxCell id="TBT81XrI4FcMYPNjkkqH-27" value="Выйти" style="rounded=0;whiteSpace=wrap;html=1;align=center;fontSize=22;" vertex="1" parent="TBT81XrI4FcMYPNjkkqH-1">
          <mxGeometry x="40" y="10" width="100" height="40" as="geometry" />
        </mxCell>
        <mxCell id="TBT81XrI4FcMYPNjkkqH-28" value="Имя Фамилия" style="text;html=1;strokeColor=none;fillColor=none;align=left;verticalAlign=middle;whiteSpace=wrap;rounded=0;fontSize=16;" vertex="1" parent="TBT81XrI4FcMYPNjkkqH-1">
          <mxGeometry x="150" y="20" width="130" height="30" as="geometry" />
        </mxCell>
        <mxCell id="08TyVMez4766lk58ViV9-0" value="Создать пользователей" style="text;html=1;strokeColor=none;fillColor=none;align=left;verticalAlign=middle;whiteSpace=wrap;rounded=0;fontSize=20;" vertex="1" parent="TBT81XrI4FcMYPNjkkqH-1">
          <mxGeometry x="520" y="80" width="230" height="30" as="geometry" />
        </mxCell>
        <mxCell id="08TyVMez4766lk58ViV9-2" value="ID" style="text;html=1;strokeColor=none;fillColor=none;align=center;verticalAlign=middle;whiteSpace=wrap;rounded=0;fontSize=20;" vertex="1" parent="TBT81XrI4FcMYPNjkkqH-1">
          <mxGeometry x="520" y="130" width="40" height="30" as="geometry" />
        </mxCell>
        <mxCell id="08TyVMez4766lk58ViV9-3" value="Логин" style="text;html=1;strokeColor=none;fillColor=none;align=center;verticalAlign=middle;whiteSpace=wrap;rounded=0;fontSize=20;" vertex="1" parent="TBT81XrI4FcMYPNjkkqH-1">
          <mxGeometry x="560" y="130" width="120" height="30" as="geometry" />
        </mxCell>
        <mxCell id="08TyVMez4766lk58ViV9-4" value="Имя" style="text;html=1;strokeColor=none;fillColor=none;align=center;verticalAlign=middle;whiteSpace=wrap;rounded=0;fontSize=20;" vertex="1" parent="TBT81XrI4FcMYPNjkkqH-1">
          <mxGeometry x="680" y="130" width="120" height="30" as="geometry" />
        </mxCell>
        <mxCell id="08TyVMez4766lk58ViV9-5" value="Фамилия" style="text;html=1;strokeColor=none;fillColor=none;align=center;verticalAlign=middle;whiteSpace=wrap;rounded=0;fontSize=20;" vertex="1" parent="TBT81XrI4FcMYPNjkkqH-1">
          <mxGeometry x="800" y="130" width="120" height="30" as="geometry" />
        </mxCell>
        <mxCell id="08TyVMez4766lk58ViV9-6" value="Почта" style="text;html=1;strokeColor=none;fillColor=none;align=center;verticalAlign=middle;whiteSpace=wrap;rounded=0;fontSize=20;" vertex="1" parent="TBT81XrI4FcMYPNjkkqH-1">
          <mxGeometry x="920" y="130" width="120" height="30" as="geometry" />
        </mxCell>
        <mxCell id="08TyVMez4766lk58ViV9-7" value="Роль" style="text;html=1;strokeColor=none;fillColor=none;align=center;verticalAlign=middle;whiteSpace=wrap;rounded=0;fontSize=20;" vertex="1" parent="TBT81XrI4FcMYPNjkkqH-1">
          <mxGeometry x="1040" y="130" width="120" height="30" as="geometry" />
        </mxCell>
        <mxCell id="08TyVMez4766lk58ViV9-8" value="1" style="text;html=1;strokeColor=none;fillColor=none;align=center;verticalAlign=middle;whiteSpace=wrap;rounded=0;fontSize=20;" vertex="1" parent="TBT81XrI4FcMYPNjkkqH-1">
          <mxGeometry x="520" y="170" width="40" height="30" as="geometry" />
        </mxCell>
        <mxCell id="08TyVMez4766lk58ViV9-11" value="&lt;b&gt;&lt;i&gt;&lt;font style=&quot;font-size: 19px;&quot;&gt;&amp;lt;input&amp;gt;&lt;/font&gt;&lt;/i&gt;&lt;/b&gt;" style="rounded=1;whiteSpace=wrap;html=1;fontColor=#BDBDBD;" vertex="1" parent="TBT81XrI4FcMYPNjkkqH-1">
          <mxGeometry x="560" y="170" width="120" height="30" as="geometry" />
        </mxCell>
        <mxCell id="08TyVMez4766lk58ViV9-12" value="&lt;b&gt;&lt;i&gt;&lt;font style=&quot;font-size: 19px;&quot;&gt;&amp;lt;input&amp;gt;&lt;/font&gt;&lt;/i&gt;&lt;/b&gt;" style="rounded=1;whiteSpace=wrap;html=1;fontColor=#BDBDBD;" vertex="1" parent="TBT81XrI4FcMYPNjkkqH-1">
          <mxGeometry x="680" y="170" width="120" height="30" as="geometry" />
        </mxCell>
        <mxCell id="08TyVMez4766lk58ViV9-13" value="&lt;b&gt;&lt;i&gt;&lt;font style=&quot;font-size: 19px;&quot;&gt;&amp;lt;input&amp;gt;&lt;/font&gt;&lt;/i&gt;&lt;/b&gt;" style="rounded=1;whiteSpace=wrap;html=1;fontColor=#BDBDBD;" vertex="1" parent="TBT81XrI4FcMYPNjkkqH-1">
          <mxGeometry x="800" y="170" width="120" height="30" as="geometry" />
        </mxCell>
        <mxCell id="08TyVMez4766lk58ViV9-14" value="&lt;b&gt;&lt;i&gt;&lt;font style=&quot;font-size: 19px;&quot;&gt;&amp;lt;input&amp;gt;&lt;/font&gt;&lt;/i&gt;&lt;/b&gt;" style="rounded=1;whiteSpace=wrap;html=1;fontColor=#BDBDBD;" vertex="1" parent="TBT81XrI4FcMYPNjkkqH-1">
          <mxGeometry x="920" y="170" width="120" height="30" as="geometry" />
        </mxCell>
        <mxCell id="08TyVMez4766lk58ViV9-16" value="N" style="text;html=1;strokeColor=none;fillColor=none;align=center;verticalAlign=middle;whiteSpace=wrap;rounded=0;fontSize=20;" vertex="1" parent="TBT81XrI4FcMYPNjkkqH-1">
          <mxGeometry x="520" y="250" width="40" height="30" as="geometry" />
        </mxCell>
        <mxCell id="08TyVMez4766lk58ViV9-17" value="&lt;b&gt;&lt;i&gt;&lt;font style=&quot;font-size: 19px;&quot;&gt;&amp;lt;input&amp;gt;&lt;/font&gt;&lt;/i&gt;&lt;/b&gt;" style="rounded=1;whiteSpace=wrap;html=1;fontColor=#BDBDBD;" vertex="1" parent="TBT81XrI4FcMYPNjkkqH-1">
          <mxGeometry x="560" y="250" width="120" height="30" as="geometry" />
        </mxCell>
        <mxCell id="08TyVMez4766lk58ViV9-18" value="&lt;b&gt;&lt;i&gt;&lt;font style=&quot;font-size: 19px;&quot;&gt;&amp;lt;input&amp;gt;&lt;/font&gt;&lt;/i&gt;&lt;/b&gt;" style="rounded=1;whiteSpace=wrap;html=1;fontColor=#BDBDBD;" vertex="1" parent="TBT81XrI4FcMYPNjkkqH-1">
          <mxGeometry x="680" y="250" width="120" height="30" as="geometry" />
        </mxCell>
        <mxCell id="08TyVMez4766lk58ViV9-19" value="&lt;b&gt;&lt;i&gt;&lt;font style=&quot;font-size: 19px;&quot;&gt;&amp;lt;input&amp;gt;&lt;/font&gt;&lt;/i&gt;&lt;/b&gt;" style="rounded=1;whiteSpace=wrap;html=1;fontColor=#BDBDBD;" vertex="1" parent="TBT81XrI4FcMYPNjkkqH-1">
          <mxGeometry x="800" y="250" width="120" height="30" as="geometry" />
        </mxCell>
        <mxCell id="08TyVMez4766lk58ViV9-20" value="&lt;b&gt;&lt;i&gt;&lt;font style=&quot;font-size: 19px;&quot;&gt;&amp;lt;input&amp;gt;&lt;/font&gt;&lt;/i&gt;&lt;/b&gt;" style="rounded=1;whiteSpace=wrap;html=1;fontColor=#BDBDBD;" vertex="1" parent="TBT81XrI4FcMYPNjkkqH-1">
          <mxGeometry x="920" y="250" width="120" height="30" as="geometry" />
        </mxCell>
        <mxCell id="08TyVMez4766lk58ViV9-21" value="&lt;b&gt;&lt;i&gt;&lt;font style=&quot;font-size: 19px;&quot;&gt;&amp;lt;select&amp;gt;&lt;/font&gt;&lt;/i&gt;&lt;/b&gt;" style="rounded=1;whiteSpace=wrap;html=1;fontColor=#BDBDBD;" vertex="1" parent="TBT81XrI4FcMYPNjkkqH-1">
          <mxGeometry x="1040" y="250" width="120" height="30" as="geometry" />
        </mxCell>
        <mxCell id="08TyVMez4766lk58ViV9-22" value="..." style="text;html=1;strokeColor=none;fillColor=none;align=center;verticalAlign=middle;whiteSpace=wrap;rounded=0;" vertex="1" parent="TBT81XrI4FcMYPNjkkqH-1">
          <mxGeometry x="550" y="210" width="60" height="30" as="geometry" />
        </mxCell>
        <mxCell id="08TyVMez4766lk58ViV9-23" value="Создать" style="rounded=0;whiteSpace=wrap;html=1;align=center;fontSize=22;" vertex="1" parent="TBT81XrI4FcMYPNjkkqH-1">
          <mxGeometry x="560" y="320" width="100" height="40" as="geometry" />
        </mxCell>
        <mxCell id="08TyVMez4766lk58ViV9-24" value="Добавить" style="rounded=0;whiteSpace=wrap;html=1;align=center;fontSize=22;" vertex="1" parent="TBT81XrI4FcMYPNjkkqH-1">
          <mxGeometry x="660" y="320" width="100" height="40" as="geometry" />
        </mxCell>
        <mxCell id="08TyVMez4766lk58ViV9-25" value="Удалить" style="rounded=0;whiteSpace=wrap;html=1;align=center;fontSize=22;" vertex="1" parent="TBT81XrI4FcMYPNjkkqH-1">
          <mxGeometry x="760" y="320" width="100" height="40" as="geometry" />
        </mxCell>
        <mxCell id="08TyVMez4766lk58ViV9-26" value="&lt;b&gt;&lt;i&gt;&lt;font style=&quot;font-size: 19px;&quot;&gt;&amp;lt;select&amp;gt;&lt;/font&gt;&lt;/i&gt;&lt;/b&gt;" style="rounded=1;whiteSpace=wrap;html=1;fontColor=#BDBDBD;" vertex="1" parent="TBT81XrI4FcMYPNjkkqH-1">
          <mxGeometry x="1040" y="170" width="120" height="30" as="geometry" />
        </mxCell>
        <mxCell id="08TyVMez4766lk58ViV9-28" value="1" style="text;html=1;strokeColor=none;fillColor=none;align=center;verticalAlign=middle;whiteSpace=wrap;rounded=0;fontSize=20;" vertex="1" parent="TBT81XrI4FcMYPNjkkqH-1">
          <mxGeometry x="520" y="410" width="40" height="30" as="geometry" />
        </mxCell>
        <mxCell id="08TyVMez4766lk58ViV9-29" value="john" style="text;html=1;strokeColor=none;fillColor=none;align=center;verticalAlign=middle;whiteSpace=wrap;rounded=0;fontSize=20;" vertex="1" parent="TBT81XrI4FcMYPNjkkqH-1">
          <mxGeometry x="560" y="410" width="120" height="30" as="geometry" />
        </mxCell>
        <mxCell id="08TyVMez4766lk58ViV9-30" value="John" style="text;html=1;strokeColor=none;fillColor=none;align=center;verticalAlign=middle;whiteSpace=wrap;rounded=0;fontSize=20;" vertex="1" parent="TBT81XrI4FcMYPNjkkqH-1">
          <mxGeometry x="680" y="410" width="120" height="30" as="geometry" />
        </mxCell>
        <mxCell id="08TyVMez4766lk58ViV9-31" value="Doe" style="text;html=1;strokeColor=none;fillColor=none;align=center;verticalAlign=middle;whiteSpace=wrap;rounded=0;fontSize=20;" vertex="1" parent="TBT81XrI4FcMYPNjkkqH-1">
          <mxGeometry x="800" y="410" width="120" height="30" as="geometry" />
        </mxCell>
        <mxCell id="08TyVMez4766lk58ViV9-32" value="john@it.by" style="text;html=1;strokeColor=none;fillColor=none;align=center;verticalAlign=middle;whiteSpace=wrap;rounded=0;fontSize=20;" vertex="1" parent="TBT81XrI4FcMYPNjkkqH-1">
          <mxGeometry x="920" y="410" width="120" height="30" as="geometry" />
        </mxCell>
        <mxCell id="08TyVMez4766lk58ViV9-33" value="STUDENT" style="text;html=1;strokeColor=none;fillColor=none;align=center;verticalAlign=middle;whiteSpace=wrap;rounded=0;fontSize=20;" vertex="1" parent="TBT81XrI4FcMYPNjkkqH-1">
          <mxGeometry x="1040" y="410" width="120" height="30" as="geometry" />
        </mxCell>
        <mxCell id="08TyVMez4766lk58ViV9-34" value="N" style="text;html=1;strokeColor=none;fillColor=none;align=center;verticalAlign=middle;whiteSpace=wrap;rounded=0;fontSize=20;" vertex="1" parent="TBT81XrI4FcMYPNjkkqH-1">
          <mxGeometry x="520" y="490" width="40" height="30" as="geometry" />
        </mxCell>
        <mxCell id="08TyVMez4766lk58ViV9-35" value="jain" style="text;html=1;strokeColor=none;fillColor=none;align=center;verticalAlign=middle;whiteSpace=wrap;rounded=0;fontSize=20;" vertex="1" parent="TBT81XrI4FcMYPNjkkqH-1">
          <mxGeometry x="560" y="490" width="120" height="30" as="geometry" />
        </mxCell>
        <mxCell id="08TyVMez4766lk58ViV9-36" value="Jain" style="text;html=1;strokeColor=none;fillColor=none;align=center;verticalAlign=middle;whiteSpace=wrap;rounded=0;fontSize=20;" vertex="1" parent="TBT81XrI4FcMYPNjkkqH-1">
          <mxGeometry x="680" y="490" width="120" height="30" as="geometry" />
        </mxCell>
        <mxCell id="08TyVMez4766lk58ViV9-37" value="Doe" style="text;html=1;strokeColor=none;fillColor=none;align=center;verticalAlign=middle;whiteSpace=wrap;rounded=0;fontSize=20;" vertex="1" parent="TBT81XrI4FcMYPNjkkqH-1">
          <mxGeometry x="800" y="490" width="120" height="30" as="geometry" />
        </mxCell>
        <mxCell id="08TyVMez4766lk58ViV9-38" value="jain@it.by" style="text;html=1;strokeColor=none;fillColor=none;align=center;verticalAlign=middle;whiteSpace=wrap;rounded=0;fontSize=20;" vertex="1" parent="TBT81XrI4FcMYPNjkkqH-1">
          <mxGeometry x="920" y="490" width="120" height="30" as="geometry" />
        </mxCell>
        <mxCell id="08TyVMez4766lk58ViV9-39" value="STUDENT" style="text;html=1;strokeColor=none;fillColor=none;align=center;verticalAlign=middle;whiteSpace=wrap;rounded=0;fontSize=20;" vertex="1" parent="TBT81XrI4FcMYPNjkkqH-1">
          <mxGeometry x="1040" y="490" width="120" height="30" as="geometry" />
        </mxCell>
      </root>
    </mxGraphModel>
  </diagram>
  <diagram name="teacher-all-cources" id="sY9M5JPMEWt2bZ-F5Trl">
    <mxGraphModel dx="1434" dy="797" grid="1" gridSize="10" guides="1" tooltips="1" connect="1" arrows="1" fold="1" page="1" pageScale="1" pageWidth="850" pageHeight="1100" math="0" shadow="0">
      <root>
        <mxCell id="aVX4wszAHHvf_sr8s8t_-0" />
        <mxCell id="aVX4wszAHHvf_sr8s8t_-1" parent="aVX4wszAHHvf_sr8s8t_-0" />
        <mxCell id="aVX4wszAHHvf_sr8s8t_-2" value="Пользователи" style="rounded=0;whiteSpace=wrap;html=1;align=left;fontSize=22;" vertex="1" parent="aVX4wszAHHvf_sr8s8t_-1">
          <mxGeometry x="60" y="120" width="360" height="40" as="geometry" />
        </mxCell>
        <mxCell id="aVX4wszAHHvf_sr8s8t_-3" value="Все группы" style="rounded=0;whiteSpace=wrap;html=1;align=left;fontSize=22;" vertex="1" parent="aVX4wszAHHvf_sr8s8t_-1">
          <mxGeometry x="60" y="160" width="360" height="40" as="geometry" />
        </mxCell>
        <mxCell id="aVX4wszAHHvf_sr8s8t_-4" value="" style="group" vertex="1" connectable="0" parent="aVX4wszAHHvf_sr8s8t_-1">
          <mxGeometry x="40" y="80" width="400" height="30" as="geometry" />
        </mxCell>
        <mxCell id="aVX4wszAHHvf_sr8s8t_-5" value="" style="endArrow=none;dashed=1;html=1;rounded=0;" edge="1" parent="aVX4wszAHHvf_sr8s8t_-4">
          <mxGeometry width="50" height="50" relative="1" as="geometry">
            <mxPoint y="15" as="sourcePoint" />
            <mxPoint x="120" y="14.75" as="targetPoint" />
          </mxGeometry>
        </mxCell>
        <mxCell id="aVX4wszAHHvf_sr8s8t_-6" value="Администратор" style="text;html=1;strokeColor=none;fillColor=none;align=center;verticalAlign=middle;whiteSpace=wrap;rounded=0;" vertex="1" parent="aVX4wszAHHvf_sr8s8t_-4">
          <mxGeometry x="120" width="160" height="30" as="geometry" />
        </mxCell>
        <mxCell id="aVX4wszAHHvf_sr8s8t_-7" value="" style="endArrow=none;dashed=1;html=1;rounded=0;" edge="1" parent="aVX4wszAHHvf_sr8s8t_-4">
          <mxGeometry width="50" height="50" relative="1" as="geometry">
            <mxPoint x="280" y="14.75" as="sourcePoint" />
            <mxPoint x="400" y="15" as="targetPoint" />
          </mxGeometry>
        </mxCell>
        <mxCell id="aVX4wszAHHvf_sr8s8t_-8" value="" style="group" vertex="1" connectable="0" parent="aVX4wszAHHvf_sr8s8t_-1">
          <mxGeometry x="40" y="200" width="400" height="30" as="geometry" />
        </mxCell>
        <mxCell id="aVX4wszAHHvf_sr8s8t_-9" value="" style="endArrow=none;dashed=1;html=1;rounded=0;" edge="1" parent="aVX4wszAHHvf_sr8s8t_-8">
          <mxGeometry width="50" height="50" relative="1" as="geometry">
            <mxPoint y="15" as="sourcePoint" />
            <mxPoint x="120" y="14.75" as="targetPoint" />
          </mxGeometry>
        </mxCell>
        <mxCell id="aVX4wszAHHvf_sr8s8t_-10" value="Преподаватель" style="text;html=1;strokeColor=none;fillColor=none;align=center;verticalAlign=middle;whiteSpace=wrap;rounded=0;" vertex="1" parent="aVX4wszAHHvf_sr8s8t_-8">
          <mxGeometry x="120" width="160" height="30" as="geometry" />
        </mxCell>
        <mxCell id="aVX4wszAHHvf_sr8s8t_-11" value="" style="endArrow=none;dashed=1;html=1;rounded=0;" edge="1" parent="aVX4wszAHHvf_sr8s8t_-8">
          <mxGeometry width="50" height="50" relative="1" as="geometry">
            <mxPoint x="280" y="14.75" as="sourcePoint" />
            <mxPoint x="400" y="15" as="targetPoint" />
          </mxGeometry>
        </mxCell>
        <mxCell id="aVX4wszAHHvf_sr8s8t_-12" value="Все курсы" style="rounded=0;whiteSpace=wrap;html=1;align=left;fontSize=22;fillColor=#f5f5f5;fontColor=#333333;strokeColor=#666666;" vertex="1" parent="aVX4wszAHHvf_sr8s8t_-1">
          <mxGeometry x="60" y="240" width="360" height="40" as="geometry" />
        </mxCell>
        <mxCell id="aVX4wszAHHvf_sr8s8t_-13" value="Мои курсы" style="rounded=0;whiteSpace=wrap;html=1;align=left;fontSize=22;" vertex="1" parent="aVX4wszAHHvf_sr8s8t_-1">
          <mxGeometry x="60" y="280" width="360" height="40" as="geometry" />
        </mxCell>
        <mxCell id="aVX4wszAHHvf_sr8s8t_-14" value="Мои группы" style="rounded=0;whiteSpace=wrap;html=1;align=left;fontSize=22;" vertex="1" parent="aVX4wszAHHvf_sr8s8t_-1">
          <mxGeometry x="60" y="320" width="360" height="40" as="geometry" />
        </mxCell>
        <mxCell id="aVX4wszAHHvf_sr8s8t_-15" value="" style="group" vertex="1" connectable="0" parent="aVX4wszAHHvf_sr8s8t_-1">
          <mxGeometry x="40" y="360" width="400" height="30" as="geometry" />
        </mxCell>
        <mxCell id="aVX4wszAHHvf_sr8s8t_-16" value="" style="endArrow=none;dashed=1;html=1;rounded=0;" edge="1" parent="aVX4wszAHHvf_sr8s8t_-15">
          <mxGeometry width="50" height="50" relative="1" as="geometry">
            <mxPoint y="15" as="sourcePoint" />
            <mxPoint x="120" y="14.75" as="targetPoint" />
          </mxGeometry>
        </mxCell>
        <mxCell id="aVX4wszAHHvf_sr8s8t_-17" value="Учащийся" style="text;html=1;strokeColor=none;fillColor=none;align=center;verticalAlign=middle;whiteSpace=wrap;rounded=0;" vertex="1" parent="aVX4wszAHHvf_sr8s8t_-15">
          <mxGeometry x="120" width="160" height="30" as="geometry" />
        </mxCell>
        <mxCell id="aVX4wszAHHvf_sr8s8t_-18" value="" style="endArrow=none;dashed=1;html=1;rounded=0;" edge="1" parent="aVX4wszAHHvf_sr8s8t_-15">
          <mxGeometry width="50" height="50" relative="1" as="geometry">
            <mxPoint x="280" y="14.75" as="sourcePoint" />
            <mxPoint x="400" y="15" as="targetPoint" />
          </mxGeometry>
        </mxCell>
        <mxCell id="aVX4wszAHHvf_sr8s8t_-19" value="Мои курсы" style="rounded=0;whiteSpace=wrap;html=1;align=left;fontSize=22;" vertex="1" parent="aVX4wszAHHvf_sr8s8t_-1">
          <mxGeometry x="60" y="400" width="360" height="40" as="geometry" />
        </mxCell>
        <mxCell id="aVX4wszAHHvf_sr8s8t_-20" value="" style="group" vertex="1" connectable="0" parent="aVX4wszAHHvf_sr8s8t_-1">
          <mxGeometry x="40" y="440" width="400" height="30" as="geometry" />
        </mxCell>
        <mxCell id="aVX4wszAHHvf_sr8s8t_-21" value="" style="endArrow=none;dashed=1;html=1;rounded=0;" edge="1" parent="aVX4wszAHHvf_sr8s8t_-20">
          <mxGeometry width="50" height="50" relative="1" as="geometry">
            <mxPoint y="15" as="sourcePoint" />
            <mxPoint x="120" y="14.75" as="targetPoint" />
          </mxGeometry>
        </mxCell>
        <mxCell id="aVX4wszAHHvf_sr8s8t_-22" value="Методист" style="text;html=1;strokeColor=none;fillColor=none;align=center;verticalAlign=middle;whiteSpace=wrap;rounded=0;" vertex="1" parent="aVX4wszAHHvf_sr8s8t_-20">
          <mxGeometry x="120" width="160" height="30" as="geometry" />
        </mxCell>
        <mxCell id="aVX4wszAHHvf_sr8s8t_-23" value="" style="endArrow=none;dashed=1;html=1;rounded=0;" edge="1" parent="aVX4wszAHHvf_sr8s8t_-20">
          <mxGeometry width="50" height="50" relative="1" as="geometry">
            <mxPoint x="280" y="14.75" as="sourcePoint" />
            <mxPoint x="400" y="15" as="targetPoint" />
          </mxGeometry>
        </mxCell>
        <mxCell id="aVX4wszAHHvf_sr8s8t_-24" value="Мои группы" style="rounded=0;whiteSpace=wrap;html=1;align=left;fontSize=22;" vertex="1" parent="aVX4wszAHHvf_sr8s8t_-1">
          <mxGeometry x="60" y="480" width="360" height="40" as="geometry" />
        </mxCell>
        <mxCell id="aVX4wszAHHvf_sr8s8t_-25" value="" style="endArrow=none;html=1;rounded=0;" edge="1" parent="aVX4wszAHHvf_sr8s8t_-1">
          <mxGeometry width="50" height="50" relative="1" as="geometry">
            <mxPoint x="450" y="590" as="sourcePoint" />
            <mxPoint x="450" y="70" as="targetPoint" />
          </mxGeometry>
        </mxCell>
        <mxCell id="aVX4wszAHHvf_sr8s8t_-26" value="" style="endArrow=none;html=1;rounded=0;" edge="1" parent="aVX4wszAHHvf_sr8s8t_-1">
          <mxGeometry width="50" height="50" relative="1" as="geometry">
            <mxPoint x="1170" y="60" as="sourcePoint" />
            <mxPoint x="40" y="60" as="targetPoint" />
          </mxGeometry>
        </mxCell>
        <mxCell id="aVX4wszAHHvf_sr8s8t_-27" value="Выйти" style="rounded=0;whiteSpace=wrap;html=1;align=center;fontSize=22;" vertex="1" parent="aVX4wszAHHvf_sr8s8t_-1">
          <mxGeometry x="40" y="10" width="100" height="40" as="geometry" />
        </mxCell>
        <mxCell id="aVX4wszAHHvf_sr8s8t_-28" value="Имя Фамилия" style="text;html=1;strokeColor=none;fillColor=none;align=left;verticalAlign=middle;whiteSpace=wrap;rounded=0;fontSize=16;" vertex="1" parent="aVX4wszAHHvf_sr8s8t_-1">
          <mxGeometry x="150" y="20" width="130" height="30" as="geometry" />
        </mxCell>
        <mxCell id="9BIIR-GEuA6kgBs4iLNI-4" value="" style="group" vertex="1" connectable="0" parent="aVX4wszAHHvf_sr8s8t_-1">
          <mxGeometry x="480" y="80" width="680" height="40" as="geometry" />
        </mxCell>
        <mxCell id="9BIIR-GEuA6kgBs4iLNI-0" value="Java core" style="rounded=0;whiteSpace=wrap;html=1;align=left;fontSize=25;" vertex="1" parent="9BIIR-GEuA6kgBs4iLNI-4">
          <mxGeometry width="680" height="40" as="geometry" />
        </mxCell>
        <mxCell id="9BIIR-GEuA6kgBs4iLNI-1" value="" style="triangle;whiteSpace=wrap;html=1;rotation=0;fillColor=#f5f5f5;fontColor=#333333;strokeColor=#666666;" vertex="1" parent="9BIIR-GEuA6kgBs4iLNI-4">
          <mxGeometry x="640" y="10" width="15" height="20" as="geometry" />
        </mxCell>
        <mxCell id="9BIIR-GEuA6kgBs4iLNI-5" value="" style="group" vertex="1" connectable="0" parent="aVX4wszAHHvf_sr8s8t_-1">
          <mxGeometry x="480" y="120" width="680" height="40" as="geometry" />
        </mxCell>
        <mxCell id="9BIIR-GEuA6kgBs4iLNI-6" value="Java enterprize" style="rounded=0;whiteSpace=wrap;html=1;align=left;fontSize=25;" vertex="1" parent="9BIIR-GEuA6kgBs4iLNI-5">
          <mxGeometry width="680" height="40" as="geometry" />
        </mxCell>
        <mxCell id="9BIIR-GEuA6kgBs4iLNI-7" value="" style="triangle;whiteSpace=wrap;html=1;rotation=0;fillColor=#f5f5f5;fontColor=#333333;strokeColor=#666666;" vertex="1" parent="9BIIR-GEuA6kgBs4iLNI-5">
          <mxGeometry x="640" y="10" width="15" height="20" as="geometry" />
        </mxCell>
        <mxCell id="9BIIR-GEuA6kgBs4iLNI-8" value="" style="group" vertex="1" connectable="0" parent="aVX4wszAHHvf_sr8s8t_-1">
          <mxGeometry x="480" y="160" width="680" height="40" as="geometry" />
        </mxCell>
        <mxCell id="9BIIR-GEuA6kgBs4iLNI-9" value="Go basics" style="rounded=0;whiteSpace=wrap;html=1;align=left;fontSize=25;" vertex="1" parent="9BIIR-GEuA6kgBs4iLNI-8">
          <mxGeometry width="680" height="40" as="geometry" />
        </mxCell>
        <mxCell id="9BIIR-GEuA6kgBs4iLNI-10" value="" style="triangle;whiteSpace=wrap;html=1;rotation=0;fillColor=#f5f5f5;fontColor=#333333;strokeColor=#666666;" vertex="1" parent="9BIIR-GEuA6kgBs4iLNI-8">
          <mxGeometry x="640" y="10" width="15" height="20" as="geometry" />
        </mxCell>
        <mxCell id="9BIIR-GEuA6kgBs4iLNI-11" value="" style="group" vertex="1" connectable="0" parent="aVX4wszAHHvf_sr8s8t_-1">
          <mxGeometry x="480" y="200" width="680" height="40" as="geometry" />
        </mxCell>
        <mxCell id="9BIIR-GEuA6kgBs4iLNI-12" value="Go enterprize" style="rounded=0;whiteSpace=wrap;html=1;align=left;fontSize=25;" vertex="1" parent="9BIIR-GEuA6kgBs4iLNI-11">
          <mxGeometry width="680" height="40" as="geometry" />
        </mxCell>
        <mxCell id="9BIIR-GEuA6kgBs4iLNI-13" value="" style="triangle;whiteSpace=wrap;html=1;rotation=0;fillColor=#f5f5f5;fontColor=#333333;strokeColor=#666666;" vertex="1" parent="9BIIR-GEuA6kgBs4iLNI-11">
          <mxGeometry x="640" y="10" width="15" height="20" as="geometry" />
        </mxCell>
        <mxCell id="9BIIR-GEuA6kgBs4iLNI-14" value="" style="shape=flexArrow;endArrow=classic;html=1;rounded=0;" edge="1" parent="aVX4wszAHHvf_sr8s8t_-1">
          <mxGeometry width="50" height="50" relative="1" as="geometry">
            <mxPoint x="1200" y="380" as="sourcePoint" />
            <mxPoint x="1320" y="380" as="targetPoint" />
          </mxGeometry>
        </mxCell>
        <mxCell id="9BIIR-GEuA6kgBs4iLNI-15" value="" style="group;fillColor=#f5f5f5;strokeColor=#666666;fontColor=#333333;" vertex="1" connectable="0" parent="aVX4wszAHHvf_sr8s8t_-1">
          <mxGeometry x="1360" y="80" width="680" height="40" as="geometry" />
        </mxCell>
        <mxCell id="9BIIR-GEuA6kgBs4iLNI-16" value="Java core" style="rounded=0;whiteSpace=wrap;html=1;align=left;fontSize=25;fillColor=#f5f5f5;fontColor=#333333;strokeColor=#666666;" vertex="1" parent="9BIIR-GEuA6kgBs4iLNI-15">
          <mxGeometry width="680" height="40" as="geometry" />
        </mxCell>
        <mxCell id="9BIIR-GEuA6kgBs4iLNI-17" value="" style="triangle;whiteSpace=wrap;html=1;rotation=90;fillColor=#f5f5f5;fontColor=#333333;strokeColor=#666666;" vertex="1" parent="9BIIR-GEuA6kgBs4iLNI-15">
          <mxGeometry x="640" y="10" width="15" height="20" as="geometry" />
        </mxCell>
        <mxCell id="8-eJU_f-bxgExEATULJd-0" value="Создать" style="rounded=0;whiteSpace=wrap;html=1;align=center;fontSize=22;" vertex="1" parent="aVX4wszAHHvf_sr8s8t_-1">
          <mxGeometry x="480" y="280" width="100" height="40" as="geometry" />
        </mxCell>
        <mxCell id="8-eJU_f-bxgExEATULJd-1" value="" style="group" vertex="1" connectable="0" parent="aVX4wszAHHvf_sr8s8t_-1">
          <mxGeometry x="1400" y="120" width="640" height="40" as="geometry" />
        </mxCell>
        <mxCell id="9BIIR-GEuA6kgBs4iLNI-18" value="01. Введение" style="rounded=0;whiteSpace=wrap;html=1;align=left;fontSize=25;" vertex="1" parent="8-eJU_f-bxgExEATULJd-1">
          <mxGeometry width="640" height="40" as="geometry" />
        </mxCell>
        <mxCell id="9BIIR-GEuA6kgBs4iLNI-19" value="" style="triangle;whiteSpace=wrap;html=1;rotation=0;fillColor=#f5f5f5;fontColor=#333333;strokeColor=#666666;" vertex="1" parent="8-eJU_f-bxgExEATULJd-1">
          <mxGeometry x="610" y="10" width="15" height="20" as="geometry" />
        </mxCell>
        <mxCell id="8-eJU_f-bxgExEATULJd-2" value="" style="group" vertex="1" connectable="0" parent="aVX4wszAHHvf_sr8s8t_-1">
          <mxGeometry x="1400" y="160" width="640" height="40" as="geometry" />
        </mxCell>
        <mxCell id="8-eJU_f-bxgExEATULJd-3" value="02. Типы данных" style="rounded=0;whiteSpace=wrap;html=1;align=left;fontSize=25;" vertex="1" parent="8-eJU_f-bxgExEATULJd-2">
          <mxGeometry width="640" height="40" as="geometry" />
        </mxCell>
        <mxCell id="8-eJU_f-bxgExEATULJd-4" value="" style="triangle;whiteSpace=wrap;html=1;rotation=0;fillColor=#f5f5f5;fontColor=#333333;strokeColor=#666666;" vertex="1" parent="8-eJU_f-bxgExEATULJd-2">
          <mxGeometry x="610" y="10" width="15" height="20" as="geometry" />
        </mxCell>
        <mxCell id="8-eJU_f-bxgExEATULJd-5" value="" style="group" vertex="1" connectable="0" parent="aVX4wszAHHvf_sr8s8t_-1">
          <mxGeometry x="1400" y="240" width="640" height="40" as="geometry" />
        </mxCell>
        <mxCell id="8-eJU_f-bxgExEATULJd-6" value="20. Итоговое" style="rounded=0;whiteSpace=wrap;html=1;align=left;fontSize=25;" vertex="1" parent="8-eJU_f-bxgExEATULJd-5">
          <mxGeometry width="640" height="40" as="geometry" />
        </mxCell>
        <mxCell id="8-eJU_f-bxgExEATULJd-7" value="" style="triangle;whiteSpace=wrap;html=1;rotation=0;fillColor=#f5f5f5;fontColor=#333333;strokeColor=#666666;" vertex="1" parent="8-eJU_f-bxgExEATULJd-5">
          <mxGeometry x="610" y="10" width="15" height="20" as="geometry" />
        </mxCell>
        <mxCell id="8-eJU_f-bxgExEATULJd-8" value="..." style="text;html=1;strokeColor=none;fillColor=none;align=center;verticalAlign=middle;whiteSpace=wrap;rounded=0;" vertex="1" parent="aVX4wszAHHvf_sr8s8t_-1">
          <mxGeometry x="1400" y="205" width="60" height="30" as="geometry" />
        </mxCell>
        <mxCell id="8-eJU_f-bxgExEATULJd-9" value="" style="group" vertex="1" connectable="0" parent="aVX4wszAHHvf_sr8s8t_-1">
          <mxGeometry x="1360" y="280" width="680" height="40" as="geometry" />
        </mxCell>
        <mxCell id="8-eJU_f-bxgExEATULJd-10" value="Java enterprize" style="rounded=0;whiteSpace=wrap;html=1;align=left;fontSize=25;" vertex="1" parent="8-eJU_f-bxgExEATULJd-9">
          <mxGeometry width="680" height="40" as="geometry" />
        </mxCell>
        <mxCell id="8-eJU_f-bxgExEATULJd-11" value="" style="triangle;whiteSpace=wrap;html=1;rotation=0;fillColor=#f5f5f5;fontColor=#333333;strokeColor=#666666;" vertex="1" parent="8-eJU_f-bxgExEATULJd-9">
          <mxGeometry x="640" y="10" width="15" height="20" as="geometry" />
        </mxCell>
        <mxCell id="8-eJU_f-bxgExEATULJd-12" value="" style="group" vertex="1" connectable="0" parent="aVX4wszAHHvf_sr8s8t_-1">
          <mxGeometry x="1360" y="320" width="680" height="40" as="geometry" />
        </mxCell>
        <mxCell id="8-eJU_f-bxgExEATULJd-13" value="Go basics" style="rounded=0;whiteSpace=wrap;html=1;align=left;fontSize=25;" vertex="1" parent="8-eJU_f-bxgExEATULJd-12">
          <mxGeometry width="680" height="40" as="geometry" />
        </mxCell>
        <mxCell id="8-eJU_f-bxgExEATULJd-14" value="" style="triangle;whiteSpace=wrap;html=1;rotation=0;fillColor=#f5f5f5;fontColor=#333333;strokeColor=#666666;" vertex="1" parent="8-eJU_f-bxgExEATULJd-12">
          <mxGeometry x="640" y="10" width="15" height="20" as="geometry" />
        </mxCell>
        <mxCell id="8-eJU_f-bxgExEATULJd-15" value="" style="group" vertex="1" connectable="0" parent="aVX4wszAHHvf_sr8s8t_-1">
          <mxGeometry x="1360" y="360" width="680" height="40" as="geometry" />
        </mxCell>
        <mxCell id="8-eJU_f-bxgExEATULJd-16" value="Go enterprize" style="rounded=0;whiteSpace=wrap;html=1;align=left;fontSize=25;" vertex="1" parent="8-eJU_f-bxgExEATULJd-15">
          <mxGeometry width="680" height="40" as="geometry" />
        </mxCell>
        <mxCell id="8-eJU_f-bxgExEATULJd-17" value="" style="triangle;whiteSpace=wrap;html=1;rotation=0;fillColor=#f5f5f5;fontColor=#333333;strokeColor=#666666;" vertex="1" parent="8-eJU_f-bxgExEATULJd-15">
          <mxGeometry x="640" y="10" width="15" height="20" as="geometry" />
        </mxCell>
        <mxCell id="8-eJU_f-bxgExEATULJd-18" value="Создать" style="rounded=0;whiteSpace=wrap;html=1;align=center;fontSize=22;" vertex="1" parent="aVX4wszAHHvf_sr8s8t_-1">
          <mxGeometry x="1360" y="440" width="100" height="40" as="geometry" />
        </mxCell>
        <mxCell id="8-eJU_f-bxgExEATULJd-19" value="" style="shape=flexArrow;endArrow=classic;html=1;rounded=0;" edge="1" parent="aVX4wszAHHvf_sr8s8t_-1">
          <mxGeometry width="50" height="50" relative="1" as="geometry">
            <mxPoint x="2080" y="379.5" as="sourcePoint" />
            <mxPoint x="2200" y="379.5" as="targetPoint" />
          </mxGeometry>
        </mxCell>
        <mxCell id="8-eJU_f-bxgExEATULJd-20" value="" style="group;fillColor=#f5f5f5;strokeColor=#666666;fontColor=#333333;" vertex="1" connectable="0" parent="aVX4wszAHHvf_sr8s8t_-1">
          <mxGeometry x="2240" y="80" width="680" height="40" as="geometry" />
        </mxCell>
        <mxCell id="8-eJU_f-bxgExEATULJd-21" value="Java core" style="rounded=0;whiteSpace=wrap;html=1;align=left;fontSize=25;fillColor=#f5f5f5;fontColor=#333333;strokeColor=#666666;" vertex="1" parent="8-eJU_f-bxgExEATULJd-20">
          <mxGeometry width="680" height="40" as="geometry" />
        </mxCell>
        <mxCell id="8-eJU_f-bxgExEATULJd-22" value="" style="triangle;whiteSpace=wrap;html=1;rotation=90;fillColor=#f5f5f5;fontColor=#333333;strokeColor=#666666;" vertex="1" parent="8-eJU_f-bxgExEATULJd-20">
          <mxGeometry x="640" y="10" width="15" height="20" as="geometry" />
        </mxCell>
        <mxCell id="8-eJU_f-bxgExEATULJd-23" value="" style="group" vertex="1" connectable="0" parent="aVX4wszAHHvf_sr8s8t_-1">
          <mxGeometry x="2280" y="120" width="640" height="40" as="geometry" />
        </mxCell>
        <mxCell id="8-eJU_f-bxgExEATULJd-24" value="01. Введение" style="rounded=0;whiteSpace=wrap;html=1;align=left;fontSize=25;fillColor=#f5f5f5;fontColor=#333333;strokeColor=#666666;" vertex="1" parent="8-eJU_f-bxgExEATULJd-23">
          <mxGeometry width="640" height="40" as="geometry" />
        </mxCell>
        <mxCell id="8-eJU_f-bxgExEATULJd-25" value="" style="triangle;whiteSpace=wrap;html=1;rotation=90;fillColor=#f5f5f5;fontColor=#333333;strokeColor=#666666;" vertex="1" parent="8-eJU_f-bxgExEATULJd-23">
          <mxGeometry x="600" y="10" width="15" height="20" as="geometry" />
        </mxCell>
        <mxCell id="8-eJU_f-bxgExEATULJd-26" value="" style="group" vertex="1" connectable="0" parent="aVX4wszAHHvf_sr8s8t_-1">
          <mxGeometry x="2320" y="160" width="600" height="40" as="geometry" />
        </mxCell>
        <mxCell id="8-eJU_f-bxgExEATULJd-27" value="01. Задача: Первая программа" style="rounded=0;whiteSpace=wrap;html=1;align=left;fontSize=25;" vertex="1" parent="8-eJU_f-bxgExEATULJd-26">
          <mxGeometry width="600" height="40" as="geometry" />
        </mxCell>
        <mxCell id="8-eJU_f-bxgExEATULJd-28" value="" style="triangle;whiteSpace=wrap;html=1;rotation=0;fillColor=#f5f5f5;fontColor=#333333;strokeColor=#666666;" vertex="1" parent="8-eJU_f-bxgExEATULJd-26">
          <mxGeometry x="560" y="10" width="14.0625" height="20" as="geometry" />
        </mxCell>
        <mxCell id="8-eJU_f-bxgExEATULJd-32" value="" style="group" vertex="1" connectable="0" parent="aVX4wszAHHvf_sr8s8t_-1">
          <mxGeometry x="2320" y="240" width="600" height="40" as="geometry" />
        </mxCell>
        <mxCell id="8-eJU_f-bxgExEATULJd-33" value="10. Задача: Вывод числа" style="rounded=0;whiteSpace=wrap;html=1;align=left;fontSize=25;" vertex="1" parent="8-eJU_f-bxgExEATULJd-32">
          <mxGeometry width="600" height="40" as="geometry" />
        </mxCell>
        <mxCell id="8-eJU_f-bxgExEATULJd-34" value="" style="triangle;whiteSpace=wrap;html=1;rotation=0;fillColor=#f5f5f5;fontColor=#333333;strokeColor=#666666;" vertex="1" parent="8-eJU_f-bxgExEATULJd-32">
          <mxGeometry x="560" y="10" width="14.0625" height="20" as="geometry" />
        </mxCell>
        <mxCell id="8-eJU_f-bxgExEATULJd-35" value="..." style="text;html=1;strokeColor=none;fillColor=none;align=center;verticalAlign=middle;whiteSpace=wrap;rounded=0;" vertex="1" parent="aVX4wszAHHvf_sr8s8t_-1">
          <mxGeometry x="2320" y="205" width="60" height="30" as="geometry" />
        </mxCell>
        <mxCell id="8-eJU_f-bxgExEATULJd-36" value="" style="group" vertex="1" connectable="0" parent="aVX4wszAHHvf_sr8s8t_-1">
          <mxGeometry x="2280" y="280" width="640" height="40" as="geometry" />
        </mxCell>
        <mxCell id="8-eJU_f-bxgExEATULJd-37" value="02. Типы данных" style="rounded=0;whiteSpace=wrap;html=1;align=left;fontSize=25;" vertex="1" parent="8-eJU_f-bxgExEATULJd-36">
          <mxGeometry width="640" height="40" as="geometry" />
        </mxCell>
        <mxCell id="8-eJU_f-bxgExEATULJd-38" value="" style="triangle;whiteSpace=wrap;html=1;rotation=0;fillColor=#f5f5f5;fontColor=#333333;strokeColor=#666666;" vertex="1" parent="8-eJU_f-bxgExEATULJd-36">
          <mxGeometry x="610" y="10" width="15" height="20" as="geometry" />
        </mxCell>
        <mxCell id="8-eJU_f-bxgExEATULJd-39" value="" style="group" vertex="1" connectable="0" parent="aVX4wszAHHvf_sr8s8t_-1">
          <mxGeometry x="2280" y="360" width="640" height="40" as="geometry" />
        </mxCell>
        <mxCell id="8-eJU_f-bxgExEATULJd-40" value="20. Итоговое" style="rounded=0;whiteSpace=wrap;html=1;align=left;fontSize=25;" vertex="1" parent="8-eJU_f-bxgExEATULJd-39">
          <mxGeometry width="640" height="40" as="geometry" />
        </mxCell>
        <mxCell id="8-eJU_f-bxgExEATULJd-41" value="" style="triangle;whiteSpace=wrap;html=1;rotation=0;fillColor=#f5f5f5;fontColor=#333333;strokeColor=#666666;" vertex="1" parent="8-eJU_f-bxgExEATULJd-39">
          <mxGeometry x="610" y="10" width="15" height="20" as="geometry" />
        </mxCell>
        <mxCell id="8-eJU_f-bxgExEATULJd-42" value="..." style="text;html=1;strokeColor=none;fillColor=none;align=center;verticalAlign=middle;whiteSpace=wrap;rounded=0;" vertex="1" parent="aVX4wszAHHvf_sr8s8t_-1">
          <mxGeometry x="2280" y="325" width="60" height="30" as="geometry" />
        </mxCell>
        <mxCell id="8-eJU_f-bxgExEATULJd-43" value="" style="group" vertex="1" connectable="0" parent="aVX4wszAHHvf_sr8s8t_-1">
          <mxGeometry x="2240" y="400" width="680" height="40" as="geometry" />
        </mxCell>
        <mxCell id="8-eJU_f-bxgExEATULJd-44" value="Java enterprize" style="rounded=0;whiteSpace=wrap;html=1;align=left;fontSize=25;" vertex="1" parent="8-eJU_f-bxgExEATULJd-43">
          <mxGeometry width="680" height="40" as="geometry" />
        </mxCell>
        <mxCell id="8-eJU_f-bxgExEATULJd-45" value="" style="triangle;whiteSpace=wrap;html=1;rotation=0;fillColor=#f5f5f5;fontColor=#333333;strokeColor=#666666;" vertex="1" parent="8-eJU_f-bxgExEATULJd-43">
          <mxGeometry x="640" y="10" width="15" height="20" as="geometry" />
        </mxCell>
        <mxCell id="8-eJU_f-bxgExEATULJd-46" value="" style="group" vertex="1" connectable="0" parent="aVX4wszAHHvf_sr8s8t_-1">
          <mxGeometry x="2240" y="440" width="680" height="40" as="geometry" />
        </mxCell>
        <mxCell id="8-eJU_f-bxgExEATULJd-47" value="Go basics" style="rounded=0;whiteSpace=wrap;html=1;align=left;fontSize=25;" vertex="1" parent="8-eJU_f-bxgExEATULJd-46">
          <mxGeometry width="680" height="40" as="geometry" />
        </mxCell>
        <mxCell id="8-eJU_f-bxgExEATULJd-48" value="" style="triangle;whiteSpace=wrap;html=1;rotation=0;fillColor=#f5f5f5;fontColor=#333333;strokeColor=#666666;" vertex="1" parent="8-eJU_f-bxgExEATULJd-46">
          <mxGeometry x="640" y="10" width="15" height="20" as="geometry" />
        </mxCell>
        <mxCell id="8-eJU_f-bxgExEATULJd-49" value="" style="group" vertex="1" connectable="0" parent="aVX4wszAHHvf_sr8s8t_-1">
          <mxGeometry x="2240" y="480" width="680" height="40" as="geometry" />
        </mxCell>
        <mxCell id="8-eJU_f-bxgExEATULJd-50" value="Go enterprize" style="rounded=0;whiteSpace=wrap;html=1;align=left;fontSize=25;" vertex="1" parent="8-eJU_f-bxgExEATULJd-49">
          <mxGeometry width="680" height="40" as="geometry" />
        </mxCell>
        <mxCell id="8-eJU_f-bxgExEATULJd-51" value="" style="triangle;whiteSpace=wrap;html=1;rotation=0;fillColor=#f5f5f5;fontColor=#333333;strokeColor=#666666;" vertex="1" parent="8-eJU_f-bxgExEATULJd-49">
          <mxGeometry x="640" y="10" width="15" height="20" as="geometry" />
        </mxCell>
        <mxCell id="8-eJU_f-bxgExEATULJd-52" value="Создать" style="rounded=0;whiteSpace=wrap;html=1;align=center;fontSize=22;" vertex="1" parent="aVX4wszAHHvf_sr8s8t_-1">
          <mxGeometry x="2240" y="560" width="100" height="40" as="geometry" />
        </mxCell>
        <mxCell id="8-eJU_f-bxgExEATULJd-53" value="" style="shape=flexArrow;endArrow=classic;html=1;rounded=0;" edge="1" parent="aVX4wszAHHvf_sr8s8t_-1">
          <mxGeometry width="50" height="50" relative="1" as="geometry">
            <mxPoint x="2960" y="379.5" as="sourcePoint" />
            <mxPoint x="3080" y="379.5" as="targetPoint" />
          </mxGeometry>
        </mxCell>
        <mxCell id="8-eJU_f-bxgExEATULJd-54" value="" style="group;fillColor=#f5f5f5;strokeColor=#666666;fontColor=#333333;" vertex="1" connectable="0" parent="aVX4wszAHHvf_sr8s8t_-1">
          <mxGeometry x="3120" y="80" width="680" height="40" as="geometry" />
        </mxCell>
        <mxCell id="8-eJU_f-bxgExEATULJd-55" value="Java core" style="rounded=0;whiteSpace=wrap;html=1;align=left;fontSize=25;fillColor=#f5f5f5;fontColor=#333333;strokeColor=#666666;" vertex="1" parent="8-eJU_f-bxgExEATULJd-54">
          <mxGeometry width="680" height="40" as="geometry" />
        </mxCell>
        <mxCell id="8-eJU_f-bxgExEATULJd-56" value="" style="triangle;whiteSpace=wrap;html=1;rotation=90;fillColor=#f5f5f5;fontColor=#333333;strokeColor=#666666;" vertex="1" parent="8-eJU_f-bxgExEATULJd-54">
          <mxGeometry x="640" y="10" width="15" height="20" as="geometry" />
        </mxCell>
        <mxCell id="8-eJU_f-bxgExEATULJd-57" value="" style="group" vertex="1" connectable="0" parent="aVX4wszAHHvf_sr8s8t_-1">
          <mxGeometry x="3160" y="120" width="640" height="40" as="geometry" />
        </mxCell>
        <mxCell id="8-eJU_f-bxgExEATULJd-58" value="01. Введение" style="rounded=0;whiteSpace=wrap;html=1;align=left;fontSize=25;fillColor=#f5f5f5;fontColor=#333333;strokeColor=#666666;" vertex="1" parent="8-eJU_f-bxgExEATULJd-57">
          <mxGeometry width="640" height="40" as="geometry" />
        </mxCell>
        <mxCell id="8-eJU_f-bxgExEATULJd-59" value="" style="triangle;whiteSpace=wrap;html=1;rotation=90;fillColor=#f5f5f5;fontColor=#333333;strokeColor=#666666;" vertex="1" parent="8-eJU_f-bxgExEATULJd-57">
          <mxGeometry x="600" y="10" width="15" height="20" as="geometry" />
        </mxCell>
        <mxCell id="8-eJU_f-bxgExEATULJd-60" value="" style="group" vertex="1" connectable="0" parent="aVX4wszAHHvf_sr8s8t_-1">
          <mxGeometry x="3200" y="160" width="600" height="40" as="geometry" />
        </mxCell>
        <mxCell id="8-eJU_f-bxgExEATULJd-61" value="01. Задача: Первая программа" style="rounded=0;whiteSpace=wrap;html=1;align=left;fontSize=25;fillColor=#f5f5f5;fontColor=#333333;strokeColor=#666666;" vertex="1" parent="8-eJU_f-bxgExEATULJd-60">
          <mxGeometry width="600" height="40" as="geometry" />
        </mxCell>
        <mxCell id="8-eJU_f-bxgExEATULJd-62" value="" style="triangle;whiteSpace=wrap;html=1;rotation=90;fillColor=#f5f5f5;fontColor=#333333;strokeColor=#666666;" vertex="1" parent="8-eJU_f-bxgExEATULJd-60">
          <mxGeometry x="560" y="10" width="14.0625" height="20" as="geometry" />
        </mxCell>
        <mxCell id="8-eJU_f-bxgExEATULJd-63" value="" style="group" vertex="1" connectable="0" parent="aVX4wszAHHvf_sr8s8t_-1">
          <mxGeometry x="3200" y="400" width="600" height="40" as="geometry" />
        </mxCell>
        <mxCell id="8-eJU_f-bxgExEATULJd-64" value="10. Задача: Вывод числа" style="rounded=0;whiteSpace=wrap;html=1;align=left;fontSize=25;" vertex="1" parent="8-eJU_f-bxgExEATULJd-63">
          <mxGeometry width="600" height="40" as="geometry" />
        </mxCell>
        <mxCell id="8-eJU_f-bxgExEATULJd-65" value="" style="triangle;whiteSpace=wrap;html=1;rotation=0;fillColor=#f5f5f5;fontColor=#333333;strokeColor=#666666;" vertex="1" parent="8-eJU_f-bxgExEATULJd-63">
          <mxGeometry x="560" y="10" width="14.0625" height="20" as="geometry" />
        </mxCell>
        <mxCell id="8-eJU_f-bxgExEATULJd-66" value="..." style="text;html=1;strokeColor=none;fillColor=none;align=center;verticalAlign=middle;whiteSpace=wrap;rounded=0;" vertex="1" parent="aVX4wszAHHvf_sr8s8t_-1">
          <mxGeometry x="3200" y="365" width="60" height="30" as="geometry" />
        </mxCell>
        <mxCell id="8-eJU_f-bxgExEATULJd-67" value="" style="group" vertex="1" connectable="0" parent="aVX4wszAHHvf_sr8s8t_-1">
          <mxGeometry x="3160" y="440" width="640" height="40" as="geometry" />
        </mxCell>
        <mxCell id="8-eJU_f-bxgExEATULJd-68" value="02. Типы данных" style="rounded=0;whiteSpace=wrap;html=1;align=left;fontSize=25;" vertex="1" parent="8-eJU_f-bxgExEATULJd-67">
          <mxGeometry width="640" height="40" as="geometry" />
        </mxCell>
        <mxCell id="8-eJU_f-bxgExEATULJd-69" value="" style="triangle;whiteSpace=wrap;html=1;rotation=0;fillColor=#f5f5f5;fontColor=#333333;strokeColor=#666666;" vertex="1" parent="8-eJU_f-bxgExEATULJd-67">
          <mxGeometry x="610" y="10" width="15" height="20" as="geometry" />
        </mxCell>
        <mxCell id="8-eJU_f-bxgExEATULJd-70" value="" style="group" vertex="1" connectable="0" parent="aVX4wszAHHvf_sr8s8t_-1">
          <mxGeometry x="3160" y="520" width="640" height="40" as="geometry" />
        </mxCell>
        <mxCell id="8-eJU_f-bxgExEATULJd-71" value="20. Итоговое" style="rounded=0;whiteSpace=wrap;html=1;align=left;fontSize=25;" vertex="1" parent="8-eJU_f-bxgExEATULJd-70">
          <mxGeometry width="640" height="40" as="geometry" />
        </mxCell>
        <mxCell id="8-eJU_f-bxgExEATULJd-72" value="" style="triangle;whiteSpace=wrap;html=1;rotation=0;fillColor=#f5f5f5;fontColor=#333333;strokeColor=#666666;" vertex="1" parent="8-eJU_f-bxgExEATULJd-70">
          <mxGeometry x="610" y="10" width="15" height="20" as="geometry" />
        </mxCell>
        <mxCell id="8-eJU_f-bxgExEATULJd-73" value="..." style="text;html=1;strokeColor=none;fillColor=none;align=center;verticalAlign=middle;whiteSpace=wrap;rounded=0;" vertex="1" parent="aVX4wszAHHvf_sr8s8t_-1">
          <mxGeometry x="3160" y="485" width="60" height="30" as="geometry" />
        </mxCell>
        <mxCell id="8-eJU_f-bxgExEATULJd-74" value="" style="group" vertex="1" connectable="0" parent="aVX4wszAHHvf_sr8s8t_-1">
          <mxGeometry x="3120" y="560" width="680" height="40" as="geometry" />
        </mxCell>
        <mxCell id="8-eJU_f-bxgExEATULJd-75" value="Java enterprize" style="rounded=0;whiteSpace=wrap;html=1;align=left;fontSize=25;" vertex="1" parent="8-eJU_f-bxgExEATULJd-74">
          <mxGeometry width="680" height="40" as="geometry" />
        </mxCell>
        <mxCell id="8-eJU_f-bxgExEATULJd-76" value="" style="triangle;whiteSpace=wrap;html=1;rotation=0;fillColor=#f5f5f5;fontColor=#333333;strokeColor=#666666;" vertex="1" parent="8-eJU_f-bxgExEATULJd-74">
          <mxGeometry x="640" y="10" width="15" height="20" as="geometry" />
        </mxCell>
        <mxCell id="8-eJU_f-bxgExEATULJd-77" value="" style="group" vertex="1" connectable="0" parent="aVX4wszAHHvf_sr8s8t_-1">
          <mxGeometry x="3120" y="600" width="680" height="40" as="geometry" />
        </mxCell>
        <mxCell id="8-eJU_f-bxgExEATULJd-78" value="Go basics" style="rounded=0;whiteSpace=wrap;html=1;align=left;fontSize=25;" vertex="1" parent="8-eJU_f-bxgExEATULJd-77">
          <mxGeometry width="680" height="40" as="geometry" />
        </mxCell>
        <mxCell id="8-eJU_f-bxgExEATULJd-79" value="" style="triangle;whiteSpace=wrap;html=1;rotation=0;fillColor=#f5f5f5;fontColor=#333333;strokeColor=#666666;" vertex="1" parent="8-eJU_f-bxgExEATULJd-77">
          <mxGeometry x="640" y="10" width="15" height="20" as="geometry" />
        </mxCell>
        <mxCell id="8-eJU_f-bxgExEATULJd-80" value="" style="group" vertex="1" connectable="0" parent="aVX4wszAHHvf_sr8s8t_-1">
          <mxGeometry x="3120" y="640" width="680" height="40" as="geometry" />
        </mxCell>
        <mxCell id="8-eJU_f-bxgExEATULJd-81" value="Go enterprize" style="rounded=0;whiteSpace=wrap;html=1;align=left;fontSize=25;" vertex="1" parent="8-eJU_f-bxgExEATULJd-80">
          <mxGeometry width="680" height="40" as="geometry" />
        </mxCell>
        <mxCell id="8-eJU_f-bxgExEATULJd-82" value="" style="triangle;whiteSpace=wrap;html=1;rotation=0;fillColor=#f5f5f5;fontColor=#333333;strokeColor=#666666;" vertex="1" parent="8-eJU_f-bxgExEATULJd-80">
          <mxGeometry x="640" y="10" width="15" height="20" as="geometry" />
        </mxCell>
        <mxCell id="8-eJU_f-bxgExEATULJd-83" value="Создать" style="rounded=0;whiteSpace=wrap;html=1;align=center;fontSize=22;" vertex="1" parent="aVX4wszAHHvf_sr8s8t_-1">
          <mxGeometry x="3120" y="720" width="100" height="40" as="geometry" />
        </mxCell>
        <mxCell id="8-eJU_f-bxgExEATULJd-84" value="Первая программа:&lt;br&gt;Напишите первую программу, которая выводит на экран &quot;Hello world&quot;" style="rounded=0;whiteSpace=wrap;html=1;align=left;verticalAlign=top;" vertex="1" parent="aVX4wszAHHvf_sr8s8t_-1">
          <mxGeometry x="3200" y="200" width="600" height="160" as="geometry" />
        </mxCell>
        <mxCell id="8-eJU_f-bxgExEATULJd-85" value="Max score: 5" style="text;html=1;strokeColor=none;fillColor=none;align=center;verticalAlign=middle;whiteSpace=wrap;rounded=0;fontStyle=1" vertex="1" parent="aVX4wszAHHvf_sr8s8t_-1">
          <mxGeometry x="3710" y="330" width="90" height="30" as="geometry" />
        </mxCell>
      </root>
    </mxGraphModel>
  </diagram>
</mxfile>
